<svg width="45" height="44" viewBox="0 0 45 44" fill="none" xmlns="http://www.w3.org/2000/svg">
<path d="M44.5 22C44.5 33.8636 34.6609 43.5 22.5 43.5C10.3391 43.5 0.5 33.8636 0.5 22C0.5 10.1364 10.3391 0.5 22.5 0.5C34.6609 0.5 44.5 10.1364 44.5 22Z" fill="white" stroke="black"/>
<g clip-path="url(#clip0_18_277)">
<path d="M17.6509 21.6049C16.5356 21.6049 15.6304 22.4899 15.6304 23.5805C15.6304 24.671 16.5356 25.556 17.6509 25.556C18.7662 25.556 19.6714 24.671 19.6714 23.5805C19.6714 22.4899 18.7662 21.6049 17.6509 21.6049ZM27.3492 21.6049C26.2339 21.6049 25.3287 22.4899 25.3287 23.5805C25.3287 24.671 26.2339 25.556 27.3492 25.556C28.4645 25.556 29.3696 24.671 29.3696 23.5805C29.3696 22.4899 28.4645 21.6049 27.3492 21.6049ZM22.5 6.1954C13.5776 6.1954 6.33624 13.2759 6.33624 22C6.33624 30.7241 13.5776 37.8046 22.5 37.8046C31.4225 37.8046 38.6638 30.7241 38.6638 22C38.6638 13.2759 31.4225 6.1954 22.5 6.1954ZM22.5 34.6437C15.3718 34.6437 9.569 28.9698 9.569 22C9.569 21.5417 9.60133 21.0833 9.64982 20.6408C13.4645 18.9813 16.4871 15.931 18.0712 12.1537C20.9968 16.1997 25.8136 18.8391 31.2608 18.8391C32.5216 18.8391 33.7339 18.6968 34.8977 18.4282C35.2371 19.5503 35.4311 20.7514 35.4311 22C35.4311 28.9698 29.6283 34.6437 22.5 34.6437Z" fill="#323232"/>
</g>
<defs>
<clipPath id="clip0_18_277">
<rect width="38.7931" height="37.931" fill="white" transform="translate(3.10345 3.03448)"/>
</clipPath>
</defs>
</svg>
